<svg width="33" height="32" viewBox="0 0 33 32" fill="none" xmlns="http://www.w3.org/2000/svg">
<g clip-path="url(#clip0_4712_37508)">
<path d="M32.5781 16C32.5781 7.16344 25.4147 0 16.5781 0C7.74156 0 0.578125 7.16344 0.578125 16C0.578125 23.9859 6.42906 30.6053 14.0781 31.8056V20.625H10.0156V16H14.0781V12.475C14.0781 8.465 16.4669 6.25 20.1216 6.25C21.8716 6.25 23.7031 6.5625 23.7031 6.5625V10.5H21.6856C19.6981 10.5 19.0781 11.7334 19.0781 13V16H23.5156L22.8062 20.625H19.0781V31.8056C26.7272 30.6053 32.5781 23.9859 32.5781 16Z" fill="#1877F2"/>
</g>
<defs>
<clipPath id="clip0_4712_37508">
<rect width="32" height="32" fill="white" transform="translate(0.578125)"/>
</clipPath>
</defs>
</svg>
