<svg width="33" height="32" viewBox="0 0 33 32" fill="none" xmlns="http://www.w3.org/2000/svg">
<path d="M16.5781 2.88125C20.8531 2.88125 21.3594 2.9 23.0406 2.975C24.6031 3.04375 25.4469 3.30625 26.0094 3.525C26.7531 3.8125 27.2906 4.1625 27.8469 4.71875C28.4094 5.28125 28.7531 5.8125 29.0406 6.55625C29.2594 7.11875 29.5219 7.96875 29.5906 9.525C29.6656 11.2125 29.6844 11.7188 29.6844 15.9875C29.6844 20.2625 29.6656 20.7688 29.5906 22.45C29.5219 24.0125 29.2594 24.8563 29.0406 25.4188C28.7531 26.1625 28.4031 26.7 27.8469 27.2563C27.2844 27.8188 26.7531 28.1625 26.0094 28.45C25.4469 28.6688 24.5969 28.9313 23.0406 29C21.3531 29.075 20.8469 29.0938 16.5781 29.0938C12.3031 29.0938 11.7969 29.075 10.1156 29C8.55313 28.9313 7.70938 28.6688 7.14688 28.45C6.40313 28.1625 5.86563 27.8125 5.30938 27.2563C4.74688 26.6938 4.40313 26.1625 4.11563 25.4188C3.89688 24.8563 3.63438 24.0063 3.56563 22.45C3.49063 20.7625 3.47188 20.2563 3.47188 15.9875C3.47188 11.7125 3.49063 11.2063 3.56563 9.525C3.63438 7.9625 3.89688 7.11875 4.11563 6.55625C4.40313 5.8125 4.75313 5.275 5.30938 4.71875C5.87188 4.15625 6.40313 3.8125 7.14688 3.525C7.70938 3.30625 8.55938 3.04375 10.1156 2.975C11.7969 2.9 12.3031 2.88125 16.5781 2.88125ZM16.5781 0C12.2344 0 11.6906 0.01875 9.98438 0.09375C8.28438 0.16875 7.11563 0.44375 6.10313 0.8375C5.04688 1.25 4.15313 1.79375 3.26563 2.6875C2.37188 3.575 1.82813 4.46875 1.41563 5.51875C1.02187 6.5375 0.746875 7.7 0.671875 9.4C0.596875 11.1125 0.578125 11.6562 0.578125 16C0.578125 20.3438 0.596875 20.8875 0.671875 22.5938C0.746875 24.2938 1.02187 25.4625 1.41563 26.475C1.82813 27.5313 2.37188 28.425 3.26563 29.3125C4.15313 30.2 5.04688 30.75 6.09688 31.1562C7.11563 31.55 8.27813 31.825 9.97813 31.9C11.6844 31.975 12.2281 31.9937 16.5719 31.9937C20.9156 31.9937 21.4594 31.975 23.1656 31.9C24.8656 31.825 26.0344 31.55 27.0469 31.1562C28.0969 30.75 28.9906 30.2 29.8781 29.3125C30.7656 28.425 31.3156 27.5313 31.7219 26.4813C32.1156 25.4625 32.3906 24.3 32.4656 22.6C32.5406 20.8938 32.5594 20.35 32.5594 16.0063C32.5594 11.6625 32.5406 11.1188 32.4656 9.4125C32.3906 7.7125 32.1156 6.54375 31.7219 5.53125C31.3281 4.46875 30.7844 3.575 29.8906 2.6875C29.0031 1.8 28.1094 1.25 27.0594 0.84375C26.0406 0.45 24.8781 0.175 23.1781 0.1C21.4656 0.01875 20.9219 0 16.5781 0Z" fill="#e5097f"/>
<path d="M16.5781 7.78125C12.0406 7.78125 8.35938 11.4625 8.35938 16C8.35938 20.5375 12.0406 24.2188 16.5781 24.2188C21.1156 24.2188 24.7969 20.5375 24.7969 16C24.7969 11.4625 21.1156 7.78125 16.5781 7.78125ZM16.5781 21.3312C13.6344 21.3312 11.2469 18.9438 11.2469 16C11.2469 13.0563 13.6344 10.6687 16.5781 10.6687C19.5219 10.6687 21.9094 13.0563 21.9094 16C21.9094 18.9438 19.5219 21.3312 16.5781 21.3312Z" fill="#e5097f"/>
<path d="M27.0406 7.45635C27.0406 8.51885 26.1781 9.3751 25.1219 9.3751C24.0594 9.3751 23.2031 8.5126 23.2031 7.45635C23.2031 6.39385 24.0656 5.5376 25.1219 5.5376C26.1781 5.5376 27.0406 6.4001 27.0406 7.45635Z" fill="#e5097f"/>
</svg>
