<svg width="33" height="26" viewBox="0 0 33 26" fill="none" xmlns="http://www.w3.org/2000/svg">
<path d="M10.6415 26.0009C22.717 26.0009 29.3218 15.9965 29.3218 7.32061C29.3218 7.03645 29.3218 6.75357 29.3026 6.47197C30.5875 5.54258 31.6967 4.39182 32.5781 3.07357C31.38 3.60477 30.1088 3.95298 28.8072 4.10653C30.1779 3.28612 31.2037 1.99558 31.6936 0.475172C30.4049 1.23998 28.995 1.77894 27.5247 2.06877C26.5348 1.01621 25.2256 0.319227 23.7997 0.0856846C22.3738 -0.147858 20.9107 0.0950582 19.6367 0.776843C18.3628 1.45863 17.3491 2.54127 16.7524 3.85724C16.1558 5.1732 16.0095 6.64912 16.3362 8.05661C13.726 7.92568 11.1725 7.24732 8.8414 6.06558C6.51033 4.88384 4.45381 3.22512 2.80533 1.19709C1.96576 2.64242 1.70862 4.3534 2.08626 5.98165C2.46389 7.60991 3.44791 9.03303 4.83797 9.96125C3.7931 9.93064 2.77099 9.64876 1.85813 9.13949V9.22269C1.85854 10.7385 2.38326 12.2075 3.34329 13.3805C4.30331 14.5535 5.63954 15.3584 7.12533 15.6585C6.15877 15.9222 5.14462 15.9607 4.16084 15.7712C4.58054 17.0756 5.39736 18.2163 6.49711 19.0338C7.59686 19.8512 8.92456 20.3046 10.2946 20.3305C8.93338 21.4005 7.37455 22.1916 5.70729 22.6585C4.04004 23.1255 2.29708 23.2591 0.578125 23.0518C3.58057 24.9785 7.07402 26.0005 10.6415 25.9958" fill="#1DA1F2"/>
</svg>
