<svg width="33" height="32" viewBox="0 0 33 32" fill="none" xmlns="http://www.w3.org/2000/svg">
<g clip-path="url(#clip0_4712_37525)">
<path d="M31.9408 8.24729C31.7599 7.56651 31.4033 6.94519 30.9068 6.4455C30.4103 5.94582 29.7913 5.5853 29.1117 5.40002C26.6099 4.7273 16.6099 4.72729 16.6099 4.72729C16.6099 4.72729 6.60986 4.7273 4.10805 5.40002C3.42844 5.5853 2.80941 5.94582 2.31291 6.4455C1.81642 6.94519 1.45987 7.56651 1.27895 8.24729C0.609863 10.76 0.609863 16 0.609863 16C0.609863 16 0.609863 21.24 1.27895 23.7527C1.45987 24.4335 1.81642 25.0549 2.31291 25.5545C2.80941 26.0542 3.42844 26.4147 4.10805 26.6C6.60986 27.2727 16.6099 27.2727 16.6099 27.2727C16.6099 27.2727 26.6099 27.2727 29.1117 26.6C29.7913 26.4147 30.4103 26.0542 30.9068 25.5545C31.4033 25.0549 31.7599 24.4335 31.9408 23.7527C32.6099 21.24 32.6099 16 32.6099 16C32.6099 16 32.6099 10.76 31.9408 8.24729Z" fill="#FF0302"/>
<path d="M13.3374 20.7583V11.2419L21.701 16.0001L13.3374 20.7583Z" fill="#FEFEFE"/>
</g>
<defs>
<clipPath id="clip0_4712_37525">
<rect width="32" height="32" fill="white" transform="translate(0.578125)"/>
</clipPath>
</defs>
</svg>
